:SAMPLES-PER-SECOND 30
:FULLY-SPECIFIED
:DEGREES
44
root  35.08240707 36.52735132 -14.75403102 10.21622372 1.600504279 3.068857431
lowerback  -9.195859909 0.8139420152 1.60975945
upperback  -3.689290047 0.6472250223 -2.642339945
thorax  1.37943995 0.145025 -3.580549955
lowerneck  -16.82649994 1.440000057 1.707859993
upperneck  13.6892004 0.6886180043 4.144390106
head  6.950129986 0.7512879968 1.13816011
lclavicle  0 -4.497500157e-015 -2.743230041e-014
lhumerus  -42.64440155 25.58090019 71.77330017
lradius  -0.0643524304 -6.507048965e-006 27.76810074
lwrist  4.824992743e-007 -3.790274832e-007 -29.42060089
lhand  -3.513464896e-031 -36.87580109 -10.71479988
lfingers  90 7.125020027 -90
lthumb  94.8131485 -25.55077171 101.0467377
rclavicle  0 -4.497500157e-015 -2.743230041e-014
rhumerus  -17.31209946 -5.710091114 -75.81459808
rradius  -5.16745672e-007 2.214343908e-008 78.18969727
rwrist  1.380293725e-006 2.528095422e-007 -169.1100006
rhand  -3.032451025e-031 -1.932150006 -7.462729931
rfingers  -90 -7.125020027 -90
rthumb  -86.3585968 -8.217829704 -65.99982452
rfemur  -13.30383778 14.6472044 13.43707561
rtibia  -1.042225122 0.8471577168 21.15712547
rfoot  -0.694060564 -18.50871086 -40.07216263
rtoes  4.06460762 19.61048508 -101.9608383
lfemur  -11.03610611 -17.19536591 -18.46523285
ltibia  1.704023957 1.311467171 16.02749443
lfoot  0.4313976169 -28.59953308 33.10412216
ltoes  -8.649330139 -18.10245323 -116.0848007
45
root  35.08033152 36.52631805 -14.74979881 10.24114513 1.668955564 3.084723949
lowerback  -9.176560402 0.8435080647 1.627529979
upperback  -3.70291996 0.6841840148 -2.667429924
thorax  1.357910037 0.1621830016 -3.613019943
lowerneck  -16.7371006 1.375589967 1.795349956
upperneck  13.54399967 0.6053500175 4.061570168
head  6.8895998 0.7056419849 1.085909963
lclavicle  0 -4.497500157e-015 -2.743230041e-014
lhumerus  -42.63619995 25.56669998 71.75730133
lradius  -0.06502296031 -6.507048965e-006 27.79100037
lwrist  4.824992743e-007 -3.790274832e-007 -29.47369957
lhand  -3.514630307e-031 -36.8628006 -10.70259953
lfingers  90 7.125020027 -90
lthumb  94.80448914 -25.53925514 101.0317841
rclavicle  0 -4.497500157e-015 -2.743230041e-014
rhumerus  -16.02000046 -5.097999573 -75.54260254
rradius  -5.16745672e-007 2.214343908e-008 79.44249725
rwrist  1.380293725e-006 2.528095422e-007 -168.9309998
rhand  -3.012049973e-031 -1.562540054 -7.768740177
rfingers  -90 -7.125020027 -90
rthumb  -86.41565704 -7.958748817 -65.6576767
rfemur  -13.31468391 14.61609745 13.43435097
rtibia  -1.042985916 0.8278369308 21.16644096
rfoot  -0.7157958746 -18.54196167 -40.11764908
rtoes  4.072811604 19.60980988 -101.9852982
lfemur  -11.0252943 -17.18284988 -18.4834137
ltibia  1.75221622 1.357853651 15.96367359
lfoot  0.4469335973 -28.65954971 33.07424164
ltoes  -8.689767838 -18.08358002 -116.2150116
46
root  35.07951151 36.52302299 -14.74543444 10.25777912 1.757687688 3.086811781
lowerback  -9.166660309 0.8566190004 1.61108017
upperback  -3.725589991 0.7005169988 -2.685790062
thorax  1.330219984 0.1685550064 -3.621200085
lowerneck  -16.66390038 1.325189948 1.845749974
upperneck  13.44390011 0.5386459827 4.024040222
head  6.845950127 0.6705129743 1.05685997
lclavicle  0 -4.497500157e-015 -2.743230041e-014
lhumerus  -42.60910034 25.51510048 71.771698
lradius  -0.06569158286 -6.507048965e-006 27.76920128
lwrist  4.824992743e-007 -3.790274832e-007 -29.42289925
lhand  -3.516721181e-031 -36.83380127 -10.68150043
lfingers  90 7.125020027 -90
lthumb  94.78643799 -25.51960564 100.998848
rclavicle  0 -4.497500157e-015 -2.743230041e-014
rhumerus  -14.68260002 -4.477539539 -75.27349854
rradius  -5.16745672e-007 2.214343908e-008 80.57050323
rwrist  1.380293725e-006 2.528095422e-007 -169.0820007
rhand  -3.004313352e-031 -1.610659957 -7.88409996
rfingers  -90 -7.125020027 -90
rthumb  -86.47255707 -7.850887775 -65.71107483
rfemur  -13.30206394 14.5742054 13.4395895
rtibia  -1.046241403 0.8204185963 21.1456871
rfoot  -0.7292966843 -18.55086708 -40.17964935
rtoes  4.060096741 19.60910797 -101.9473877
lfemur  -10.98962688 -17.19763374 -18.49416924
ltibia  1.804867029 1.40082109 15.89213276
lfoot  0.4748139679 -28.7062397 33.08375549
ltoes  -8.686120033 -18.08528709 -116.2032623
47
root  35.07873355 36.52203177 -14.74294287 10.25844383 1.847397566 3.101170063
lowerback  -9.104670525 0.901786983 1.667500734
upperback  -3.795419931 0.7494860291 -2.727499962
thorax  1.228670001 0.1872179955 -3.691960096
lowerneck  -16.58749962 1.255139947 1.78046
upperneck  13.4119997 0.4445250034 4.118629932
head  6.823619843 0.6277390122 1.087030172
lclavicle  0 -4.497500157e-015 -2.743230041e-014
lhumerus  -42.58589935 25.47330093 71.68080139
lradius  -0.06635861844 -6.507048965e-006 27.5286026
lwrist  4.824992743e-007 -3.790274832e-007 -29.91500092
lhand  -3.513980903e-031 -36.81430054 -10.71730042
lfingers  90 7.125020027 -90
lthumb  94.78479767 -25.55534554 100.9811707
rclavicle  0 -4.497500157e-015 -2.743230041e-014
rhumerus  -13.43729973 -3.84491992 -74.91439819
rradius  -5.16745672e-007 2.214343908e-008 81.59629822
rwrist  1.380293725e-006 2.528095422e-007 -169.2449951
rhand  -2.999383946e-031 -1.710389972 -7.957330227
rfingers  -90 -7.125020027 -90
rthumb  -86.52121735 -7.77849865 -65.81232452
rfemur  -13.28509521 14.58887672 13.44388199
rtibia  -1.054978132 0.8422878981 21.15476036
rfoot  -0.755194962 -18.50466728 -40.28180695
rtoes  4.05636692 19.60837746 -101.9362717
lfemur  -10.91865253 -17.2022686 -18.52976799
ltibia  1.876359582 1.45528245 15.78319931
lfoot  0.4989272356 -28.76863098 33.08322525
ltoes  -8.667488098 -18.09399223 -116.1432571
48
root  35.0768262 36.52596061 -14.73914319 10.27223396 1.949734569 3.099383831
lowerback  -9.187918663 0.9457988739 1.678649187
upperback  -3.765799999 0.8091750145 -2.737829924
thorax  1.309990048 0.2191649973 -3.70265007
lowerneck  -16.59670067 1.147199988 1.620970011
upperneck  13.34770012 0.3244679868 4.210589886
head  6.805270195 0.5691900253 1.129600048
lclavicle  0 -4.497500157e-015 -2.743230041e-014
lhumerus  -42.46170044 25.50650024 71.72940063
lradius  -0.06702439487 -6.507048965e-006 27.40499878
lwrist  4.824992743e-007 -3.790274832e-007 -30.14089966
lhand  -3.51368687e-031 -36.83649826 -10.7177
lfingers  90 7.125020027 -90
lthumb  94.79534912 -25.55502319 101.0050201
rclavicle  0 -4.497500157e-015 -2.743230041e-014
rhumerus  -11.93519974 -3.329910517 -74.48739624
rradius  -5.16745672e-007 2.214343908e-008 82.41799927
rwrist  1.380293725e-006 2.528095422e-007 -169.7120056
rhand  -2.987116059e-031 -1.673370004 -8.140789986
rfingers  -90 -7.125020027 -90
rthumb  -86.59039307 -7.613277435 -65.78646851
rfemur  -13.28435898 14.58352566 13.47313881
rtibia  -1.064512014 0.9009682536 21.16068077
rfoot  -0.7378163934 -18.37620544 -40.29897308
rtoes  4.062222958 19.60762024 -101.9554367
lfemur  -10.88893414 -17.25694466 -18.53237915
ltibia  1.916523695 1.481807113 15.72362232
lfoot  0.500357151 -28.78594017 33.05951309
ltoes  -8.64567852 -18.10415268 -116.0730515
49
root  35.07382851 36.52956204 -14.73463915 10.28832722 2.067299366 3.092641592
lowerback  -9.201880455 0.9820441604 1.728290081
upperback  -3.767440081 0.8528389931 -2.786099911
thorax  1.320659995 0.2398889959 -3.776669979
lowerneck  -16.59569931 1.061179996 1.521090031
upperneck  13.30980015 0.2112120241 4.330309868
head  6.794340134 0.5186240077 1.172240019
lclavicle  0 -4.497500157e-015 -2.743230041e-014
lhumerus  -42.41090012 25.44449997 71.76000214
lradius  -0.06768925488 -6.507048965e-006 27.45420074
lwrist  4.824992743e-007 -3.790274832e-007 -30.04829979
lhand  -3.513178311e-031 -36.8064003 -10.72809982
lfingers  90 7.125020027 -90
lthumb  94.78340149 -25.56628418 100.9737473
rclavicle  0 -4.497500157e-015 -2.743230041e-014
rhumerus  -10.45499897 -2.832649708 -74.15830231
rradius  -5.16745672e-007 2.214343908e-008 83.28829956
rwrist  1.380293725e-006 2.528095422e-007 -170.0429993
rhand  -2.996094386e-031 -1.425629973 -8.007570267
rfingers  -90 -7.125020027 -90
rthumb  -86.48991394 -7.74900198 -65.53800201
rfemur  -13.27373219 14.51077843 13.50833893
rtibia  -1.068928361 0.9236774445 21.14829445
rfoot  -0.7248793244 -18.32719803 -40.30181885
rtoes  4.067129135 19.60683441 -101.9683533
lfemur  -10.91823006 -17.2786274 -18.50644302
ltibia  1.912655354 1.480662942 15.73510933
lfoot  0.4592038393 -28.77361298 32.92266083
ltoes  -8.658637047 -18.09811974 -116.1147614
